# xmcd
#
# Track frame offsets: 
#        150
#        12999
#        26882
#        37037
#        48750
#        59262
#        70007
#        81841
#        91794
#        101747
#        110650
#        120880
#        132365
#        142975
#        153463
#        163798
#        172709
#        185531
#        196031
#        204713
#
# Disc length: 2840 seconds
#
# Revision: 0
# Processed by: cddbd v1.5.2PL0 Copyright (c) Steve Scherf et al.
# Submitted via: ExactAudioCopy v0.95b4
#
DISCID=070b1614
DTITLE=Various Artist - Rhythm and Blues Goes Rock 'n' Roll - Vol 2 - Disc 7
DYEAR=1900
DGENRE=R&B
TTITLE0=King Rhythm - Killer Diller
TTITLE1=Joe Neal - Tell me pretty baby
TTITLE2=Papa Lightfoot - Jumpin' with Jarvis
TTITLE3=Julian Herrera - True fine mama
TTITLE4=Pigmeat Markham - Let's have some heat
TTITLE5=Crusher - I got to know
TTITLE6=Buddy Johnson - Walk the chalk line
TTITLE7=Doctor Ross - Call the doctor
TTITLE8=Lenny Capello - Tootles
TTITLE9=Gus Jenkins - Slow down
TTITLE10=Mercy Baby - Pleadin'
TTITLE11=Charles Clark - Hidden charms
TTITLE12=Sly Dell - Let me tell you about it
TTITLE13=Sil Austin - Say Lou
TTITLE14=Isley Brothers - Everybody's gonna roll
TTITLE15=Sonny and Jaycee - You keep on doggin' me
TTITLE16=Lightnin' Hopkins - I'm wild about you
TTITLE17=Stomp Gordon - Dragnet
TTITLE18=Eddie Lang - She's mine all mine
TTITLE19=Valiants - The tequila twist
EXTD=
EXTT0=
EXTT1=
EXTT2=
EXTT3=
EXTT4=
EXTT5=
EXTT6=
EXTT7=
EXTT8=
EXTT9=
EXTT10=
EXTT11=
EXTT12=
EXTT13=
EXTT14=
EXTT15=
EXTT16=
EXTT17=
EXTT18=
EXTT19=
PLAYORDER=
